<svg width="30" height="30" viewBox="0 0 30 30" fill="none" xmlns="http://www.w3.org/2000/svg">
<g clip-path="url(#clip0_30_116)">
<path d="M4.04074 17.2139C1.81271 17.2139 0 19.0266 0 21.2546V25.9596C0 28.1877 1.81271 30.0004 4.0408 30.0004C6.26889 30.0004 8.08154 28.1877 8.08154 25.9596V21.2546C8.08154 19.0266 6.26883 17.2139 4.04074 17.2139ZM5.73773 25.9596C5.73773 26.8954 4.97648 27.6567 4.04074 27.6567C3.10506 27.6567 2.34375 26.8954 2.34375 25.9596V21.2546C2.34375 20.3189 3.10506 19.5576 4.0408 19.5576C4.97654 19.5576 5.73779 20.3189 5.73773 21.2546V25.9596Z" fill="#101C2D"/>
<path d="M14.9998 0C12.7717 0 10.959 1.81271 10.959 4.0408V25.9592C10.959 28.1873 12.7717 30 14.9998 30C17.2279 30 19.0406 28.1873 19.0406 25.9592V4.0408C19.0406 1.81271 17.2279 0 14.9998 0ZM16.6968 25.9592C16.6968 26.895 15.9355 27.6562 14.9998 27.6562C14.064 27.6562 13.3027 26.895 13.3027 25.9592V4.0408C13.3027 3.105 14.064 2.34375 14.9998 2.34375C15.9355 2.34375 16.6968 3.105 16.6968 4.0408V25.9592Z" fill="#DEB543"/>
<path d="M25.9587 8.60645C23.7307 8.60645 21.918 10.4192 21.918 12.6472V25.9589C21.918 28.187 23.7307 29.9997 25.9588 29.9997C28.1868 29.9997 29.9995 28.187 29.9995 25.959V12.6472C29.9995 10.4192 28.1868 8.60645 25.9587 8.60645ZM27.6558 25.959C27.6558 26.8947 26.8945 27.656 25.9587 27.656C25.023 27.656 24.2617 26.8947 24.2617 25.959V12.6472C24.2617 11.7114 25.023 10.9502 25.9588 10.9502C26.8945 10.9502 27.6558 11.7114 27.6558 12.6472V25.959Z" fill="#101C2D"/>
</g>
<defs>
<clipPath id="clip0_30_116">
<rect width="30" height="30" fill="white"/>
</clipPath>
</defs>
</svg>
