<svg width="30" height="30" viewBox="0 0 30 30" fill="none" xmlns="http://www.w3.org/2000/svg">
<g clip-path="url(#clip0_30_176)">
<path d="M28.8281 27.6562H2.34375V1.17188C2.34375 0.524648 1.8191 0 1.17188 0C0.524648 0 0 0.524648 0 1.17188V28.8281C0 29.4754 0.524648 30 1.17188 30H28.8281C29.4754 30 30 29.4754 30 28.8281C30 28.1809 29.4754 27.6562 28.8281 27.6562Z" fill="black"/>
<path d="M5.39062 25.3125C6.03785 25.3125 6.5625 24.7879 6.5625 24.1406V15.2344C6.5625 14.5882 7.0882 14.0625 7.73438 14.0625C8.38055 14.0625 8.90625 14.5882 8.90625 15.2344V24.1406C8.90625 24.7879 9.4309 25.3125 10.0781 25.3125C10.7254 25.3125 11.25 24.7879 11.25 24.1406V15.2344C11.25 13.2959 9.67289 11.7188 7.73438 11.7188C5.79586 11.7188 4.21875 13.2959 4.21875 15.2344V24.1406C4.21875 24.7879 4.7434 25.3125 5.39062 25.3125Z" fill="black"/>
<path d="M19.4531 25.3125C20.1004 25.3125 20.625 24.7879 20.625 24.1406V19.9219C20.625 17.9834 19.0479 16.4062 17.1094 16.4062C15.1709 16.4062 13.5938 17.9834 13.5938 19.9219V24.1406C13.5938 24.7879 14.1184 25.3125 14.7656 25.3125C15.4129 25.3125 15.9375 24.7879 15.9375 24.1406V19.9219C15.9375 19.2757 16.4632 18.75 17.1094 18.75C17.7555 18.75 18.2812 19.2757 18.2812 19.9219V24.1406C18.2812 24.7879 18.8059 25.3125 19.4531 25.3125Z" fill="black"/>
<path d="M26.4844 9.375C24.5459 9.375 22.9688 10.9521 22.9688 12.8906V24.1406C22.9688 24.7879 23.4934 25.3125 24.1406 25.3125C24.7879 25.3125 25.3125 24.7879 25.3125 24.1406V12.8906C25.3125 12.2445 25.8382 11.7188 26.4844 11.7188C27.1305 11.7188 27.6562 12.2445 27.6562 12.8906V24.1406C27.6562 24.7879 28.1809 25.3125 28.8281 25.3125C29.4754 25.3125 30 24.7879 30 24.1406V12.8906C30 10.9521 28.4229 9.375 26.4844 9.375Z" fill="black"/>
<path d="M7.73438 9.375C8.68049 9.375 9.53988 8.99865 10.1725 8.38863L13.6215 10.1131C13.6039 10.2554 13.5938 10.3999 13.5938 10.5469C13.5938 12.4854 15.1709 14.0625 17.1094 14.0625C19.0479 14.0625 20.625 12.4854 20.625 10.5469C20.625 10.1808 20.5686 9.82764 20.4643 9.49553L24.5371 6.44092C25.095 6.81352 25.7647 7.03125 26.4844 7.03125C28.4229 7.03125 30 5.45414 30 3.51562C30 1.57711 28.4229 0 26.4844 0C24.5459 0 22.9688 1.57711 22.9688 3.51562C22.9688 3.88172 23.0252 4.23486 23.1295 4.56697L19.0566 7.62158C18.4987 7.24898 17.8291 7.03125 17.1094 7.03125C16.1633 7.03125 15.3039 7.4076 14.6713 8.01762L11.2223 6.29314C11.2399 6.15088 11.25 6.00633 11.25 5.85938C11.25 3.92086 9.67289 2.34375 7.73438 2.34375C5.79586 2.34375 4.21875 3.92086 4.21875 5.85938C4.21875 7.79789 5.79586 9.375 7.73438 9.375ZM26.4844 2.34375C27.1305 2.34375 27.6562 2.86945 27.6562 3.51562C27.6562 4.1618 27.1305 4.6875 26.4844 4.6875C25.8382 4.6875 25.3125 4.1618 25.3125 3.51562C25.3125 2.86945 25.8382 2.34375 26.4844 2.34375ZM17.1094 9.375C17.7555 9.375 18.2812 9.9007 18.2812 10.5469C18.2812 11.193 17.7555 11.7188 17.1094 11.7188C16.4632 11.7188 15.9375 11.193 15.9375 10.5469C15.9375 9.9007 16.4632 9.375 17.1094 9.375ZM7.73438 4.6875C8.38055 4.6875 8.90625 5.2132 8.90625 5.85938C8.90625 6.50555 8.38055 7.03125 7.73438 7.03125C7.0882 7.03125 6.5625 6.50555 6.5625 5.85938C6.5625 5.2132 7.0882 4.6875 7.73438 4.6875Z" fill="#DEB543"/>
</g>
<defs>
<clipPath id="clip0_30_176">
<rect width="30" height="30" fill="white"/>
</clipPath>
</defs>
</svg>
