<svg width="80" height="80" viewBox="0 0 80 80" fill="none" xmlns="http://www.w3.org/2000/svg">
<g clip-path="url(#clip0_30_377)">
<path d="M78.7984 49.6765C73.4559 71.105 51.7525 84.1461 30.3214 78.8024C8.89919 73.46 -4.14197 51.7552 1.20292 30.3279C6.54285 8.89689 28.2464 -4.1455 49.6712 1.1969C71.1009 6.53941 84.1408 28.2467 78.7984 49.6765Z" fill="#2675C7"/>
<g clip-path="url(#clip1_30_377)">
<path d="M51.4457 45.6999C51.5158 40.9576 46.5617 37.623 40.1687 36.9653C36.4136 36.5903 34.3723 35.5345 34.3723 33.0884C34.3723 30.7519 36.7821 29.0153 39.4668 29.1595C44.3449 29.4307 45.0526 32.4076 45.0526 34.2249C45.0526 34.2249 50.3636 34.2826 50.3636 34.2249C50.3636 29.7999 47.7783 25.9057 42.4966 24.7576V19.5192H37.2325V24.573C31.7753 25.4269 28.7513 29.7653 28.6987 33.4576C28.6226 38.3442 32.7638 41.0615 39.6364 42.0422C43.9062 42.6192 45.8072 44.2288 45.7662 46.3634C45.7311 48.6711 44.2045 50.8807 39.806 50.8807C35.6298 50.8807 33.916 48.3365 33.916 45.6538H28.184C28.184 50.4653 30.7926 53.9961 37.2032 54.8153V59.8576H42.4674V54.8672C49.9074 53.9384 51.3989 48.423 51.4457 45.6999Z" fill="white"/>
<path d="M14.503 39.9999C14.5031 34.7318 16.1806 29.5968 19.2985 25.3196C22.4165 21.0424 26.8176 17.839 31.8805 16.1615V10.6288C25.3484 12.3863 19.5834 16.2135 15.4737 21.521C11.3639 26.8284 9.13757 33.3215 9.13757 39.9999C9.13757 46.6783 11.3639 53.1714 15.4737 58.4789C19.5834 63.7863 25.3484 67.6136 31.8805 69.3711V63.8384C26.8176 62.1609 22.4165 58.9575 19.2985 54.6803C16.1806 50.4031 14.5031 45.268 14.503 39.9999Z" fill="white"/>
<path d="M47.8192 10.5422V16.0576C52.9528 17.6927 57.4287 20.8911 60.6036 25.193C63.7784 29.4949 65.4887 34.6789 65.4887 39.9999C65.4887 45.3209 63.7784 50.5049 60.6036 54.8069C57.4287 59.1088 52.9528 62.3072 47.8192 63.9422V69.4576C54.4196 67.7486 60.26 63.9311 64.4279 58.6016C68.5959 53.272 70.8565 46.7308 70.8565 39.9999C70.8565 33.2691 68.5959 26.7278 64.4279 21.3983C60.26 16.0688 54.4196 12.2512 47.8192 10.5422Z" fill="white"/>
</g>
</g>
<defs>
<clipPath id="clip0_30_377">
<rect width="80" height="80" fill="white"/>
</clipPath>
<clipPath id="clip1_30_377">
<rect width="62" height="60" fill="white" transform="translate(8.99902 9.99994)"/>
</clipPath>
</defs>
</svg>
