<svg width="80" height="80" viewBox="0 0 80 80" fill="none" xmlns="http://www.w3.org/2000/svg">
<g clip-path="url(#clip0_212_340)">
<path d="M78.7984 49.6765C73.4559 71.1051 51.7525 84.1461 30.3214 78.8025C8.89919 73.4601 -4.14197 51.7553 1.20292 30.328C6.54285 8.89692 28.2464 -4.14547 49.6712 1.19693C71.1009 6.53944 84.1408 28.2467 78.7984 49.6765Z" fill="#F7931A"/>
<path d="M26.8425 46.7366C26.625 47.2766 26.0738 48.0866 24.8312 47.779C24.8751 47.8428 21.6413 46.9828 21.6413 46.9828L19.4626 52.0065L25.1737 53.4303C26.2362 53.6965 27.2775 53.9752 28.3025 54.2378L26.4862 61.5302L30.8699 62.624L32.6687 55.409C33.8662 55.7339 35.0286 56.034 36.1661 56.3165L34.3736 63.4976L38.7624 64.5914L40.5786 57.3127C48.0623 58.7289 53.6897 58.1577 56.0584 51.389C57.9672 45.9391 55.9635 42.7953 52.026 40.7453C54.8935 40.0841 57.0534 38.1979 57.6296 34.3017C58.4258 28.9792 54.3734 26.118 48.8322 24.2092L50.6297 16.9992L46.2409 15.9055L44.491 22.9254C43.3372 22.6379 42.1522 22.3667 40.9748 22.0979L42.7372 15.0316L38.351 13.9379L36.5523 21.1453C35.5972 20.9278 34.6599 20.7127 33.7498 20.4866L33.7548 20.464L27.7023 18.9528L26.5347 23.6402C26.5347 23.6402 29.791 24.3865 29.7222 24.4327C31.4998 24.8765 31.821 26.0527 31.7673 26.9853L26.8425 46.7366ZM47.6022 48.3628C46.246 53.8127 37.0699 50.8664 34.0949 50.1277L36.5049 40.4666C39.4798 41.2091 49.0197 42.679 47.6022 48.3628ZM48.9597 34.223C47.7222 39.1804 40.0848 36.6617 37.6073 36.0442L39.7923 27.2817C42.2698 27.8992 50.2485 29.0517 48.9597 34.223Z" fill="white"/>
</g>
<defs>
<clipPath id="clip0_212_340">
<rect width="80" height="80" fill="white"/>
</clipPath>
</defs>
</svg>
